<?xml version="1.0" standalone="no"?>
<!DOCTYPE svg PUBLIC "-//W3C//DTD SVG 20010904//EN"
 "http://www.w3.org/TR/2001/REC-SVG-20010904/DTD/svg10.dtd">
<svg version="1.0" xmlns="http://www.w3.org/2000/svg"
 width="512.000000pt" height="512.000000pt" viewBox="0 0 512.000000 512.000000"
 preserveAspectRatio="xMidYMid meet">

<g transform="translate(0.000000,512.000000) scale(0.100000,-0.100000)"
fill="#000000" stroke="none">
<path d="M1946 4384 c-34 -11 -64 -31 -102 -68 -78 -79 -84 -107 -84 -398 l0
-238 800 0 800 0 0 238 c0 291 -6 319 -84 398 -87 86 -69 84 -720 83 -469 0
-569 -3 -610 -15z"/>
<path d="M1360 3440 l0 -160 1200 0 1200 0 0 160 0 160 -1200 0 -1200 0 0
-160z"/>
<path d="M1986 3190 c-63 -16 -153 -70 -197 -117 -22 -24 -55 -74 -72 -111
-29 -61 -32 -76 -32 -163 0 -90 2 -99 37 -171 45 -91 103 -147 196 -191 61
-29 76 -32 162 -32 86 0 101 3 162 32 90 42 150 100 193 186 19 38 35 78 35
88 0 44 9 49 90 49 81 0 90 -5 90 -49 0 -10 16 -50 35 -88 43 -86 103 -144
193 -186 61 -29 76 -32 162 -32 86 0 101 3 162 32 93 44 151 100 196 191 35
72 37 81 37 172 0 91 -2 100 -37 172 -45 91 -103 147 -196 191 -61 29 -76 32
-162 32 -86 0 -101 -3 -162 -32 -90 -42 -150 -100 -193 -186 -19 -38 -35 -78
-35 -88 0 -44 -9 -49 -90 -49 -81 0 -90 5 -90 49 0 10 -16 50 -35 88 -66 132
-188 212 -333 219 -42 2 -94 -1 -116 -6z"/>
<path d="M360 2783 c0 -3 24 -80 54 -172 121 -372 192 -710 238 -1126 8 -73
13 -246 13 -442 l0 -323 928 0 927 0 0 719 0 720 -82 25 c-46 13 -526 153
-1068 311 -542 157 -991 288 -997 290 -7 2 -13 2 -13 -2z m1160 -943 c311 -78
582 -145 603 -151 35 -9 37 -12 37 -50 0 -34 -3 -39 -17 -35 -10 3 -283 71
-608 152 -324 81 -592 148 -594 150 -2 2 -7 22 -11 44 -6 35 -5 40 9 36 9 -3
270 -69 581 -146z m23 -325 c298 -75 559 -140 580 -146 35 -9 37 -12 37 -50 0
-34 -3 -39 -17 -35 -10 3 -272 69 -583 146 -310 78 -565 142 -566 143 -1 1 -4
19 -8 40 -4 24 -3 37 4 37 6 0 254 -61 553 -135z m20 -325 c287 -72 539 -135
560 -141 35 -9 37 -12 37 -50 0 -38 -1 -39 -27 -32 -16 3 -271 68 -568 142
l-540 136 -3 38 c-2 22 1 37 8 37 5 0 245 -59 533 -130z"/>
<path d="M3715 2484 c-572 -166 -1057 -308 -1077 -314 l-38 -11 0 -719 0 -720
928 0 927 0 0 323 c0 194 5 370 13 442 45 414 116 752 239 1128 30 93 53 170
51 172 -2 1 -471 -134 -1043 -301z m525 -481 c0 -5 -9 -55 -21 -113 -11 -58
-29 -165 -39 -239 -11 -74 -23 -137 -27 -141 -4 -4 -267 -76 -583 -160 -316
-84 -583 -155 -592 -158 -17 -4 -18 12 -18 236 l0 241 38 11 c81 24 1218 328
1230 329 6 0 12 -2 12 -6z m-142 -720 l-3 -38 -540 -136 c-297 -74 -552 -139
-567 -142 -27 -7 -28 -6 -28 33 0 35 3 40 28 47 560 142 1081 271 1095 272 15
1 18 -6 15 -36z"/>
<path d="M3590 1756 c-289 -78 -531 -144 -538 -146 -10 -4 -12 -42 -10 -161
l3 -156 460 123 c253 67 487 130 521 139 l61 16 22 137 c12 75 25 149 28 165
4 19 1 27 -8 26 -8 -1 -250 -65 -539 -143z"/>
</g>
</svg>
